HIERARCHY
ROOT joint_0
{
	OFFSET 0.000000 0.000000 0.000000
	CHANNELS 6 Xposition Yposition Zposition Zrotation Yrotation Xrotation 
	JOINT joint_1
	{
		OFFSET 4.520508 -1.939880 86.268921
		CHANNELS 3 Zrotation Yrotation Xrotation
		JOINT joint_2
		{
			OFFSET -4.459717 -0.438538 78.934082
			CHANNELS 3 Zrotation Yrotation Xrotation
			JOINT joint_3
			{
				OFFSET -5.197754 -0.781128 78.796997
				CHANNELS 3 Zrotation Yrotation Xrotation
				JOINT joint_4
				{
					OFFSET 2.952026 -3.710571 109.812988
					CHANNELS 3 Zrotation Yrotation Xrotation
					JOINT joint_5
					{
						OFFSET 24.716797 -5.488037 87.903931
						CHANNELS 3 Zrotation Yrotation Xrotation
						End Site
						{
							OFFSET 0.000000 0.000000 0.000000
						}
					}
				}
				JOINT joint_6
				{
					OFFSET -3.154419 -25.484680 60.934937
					CHANNELS 3 Zrotation Yrotation Xrotation
					JOINT joint_7
					{
						OFFSET -28.997192 -144.472229 -32.671997
						CHANNELS 3 Zrotation Yrotation Xrotation
						JOINT joint_8
						{
							OFFSET 19.867676 -18.614380 -249.897949
							CHANNELS 3 Zrotation Yrotation Xrotation
							JOINT joint_9
							{
								OFFSET 5.281982 -13.816650 -264.993042
								CHANNELS 3 Zrotation Yrotation Xrotation
								End Site
								{
									OFFSET 0.000000 0.000000 0.000000
								}
							}
						}
					}
				}
				JOINT joint_10
				{
					OFFSET 6.494995 21.336792 62.257935
					CHANNELS 3 Zrotation Yrotation Xrotation
					JOINT joint_11
					{
						OFFSET 31.106567 145.200745 -27.007935
						CHANNELS 3 Zrotation Yrotation Xrotation
						JOINT joint_12
						{
							OFFSET 29.119141 24.684326 -248.460083
							CHANNELS 3 Zrotation Yrotation Xrotation
							JOINT joint_13
							{
								OFFSET 21.220093 31.248413 -262.703979
								CHANNELS 3 Zrotation Yrotation Xrotation
								End Site
								{
									OFFSET 0.000000 0.000000 0.000000
								}
							}
						}
					}
				}
			}
		}
	}
	JOINT joint_14
	{
		OFFSET -15.458496 -88.861694 -109.593018
		CHANNELS 3 Zrotation Yrotation Xrotation
		JOINT joint_15
		{
			OFFSET -6.193359 6.837952 -506.710999
			CHANNELS 3 Zrotation Yrotation Xrotation
			JOINT joint_16
			{
				OFFSET -35.096680 13.289795 -435.677025
				CHANNELS 3 Zrotation Yrotation Xrotation
				JOINT joint_17
				{
					OFFSET 158.491211 -33.916565 -71.771002
					CHANNELS 3 Zrotation Yrotation Xrotation
					End Site
					{
						OFFSET 0.000000 0.000000 0.000000
					}
				}
			}
		}
	}
	JOINT joint_18
	{
		OFFSET 23.116943 86.574158 -110.082031
		CHANNELS 3 Zrotation Yrotation Xrotation
		JOINT joint_19
		{
			OFFSET -6.125854 -0.283569 -506.757019
			CHANNELS 3 Zrotation Yrotation Xrotation
			JOINT joint_20
			{
				OFFSET -63.240234 11.589966 -432.537994
				CHANNELS 3 Zrotation Yrotation Xrotation
				JOINT joint_21
				{
					OFFSET 156.074219 -41.487305 -73.077999
					CHANNELS 3 Zrotation Yrotation Xrotation
					End Site
					{
						OFFSET 0.000000 0.000000 0.000000
					}
				}
			}
		}
	}
}
MOTION
Frames: 12
Frame Time: 0.016667
-2295.911133 910.422119 1142.038940 9.993570 -1.135905 0.437697 -1.048417 1.770327 -0.234506 -1.034971 -0.343718 0.044793 -1.029571 0.356109 0.026873 -0.482687 2.034419 2.151356 0.000000 0.000000 0.000000 2.075142 -0.738388 -1.205791 0.326884 -0.925027 1.716206 -0.018545 -1.027435 -2.846801 0.000000 0.000000 0.000000 -4.220159 -0.954347 -0.494373 -0.155156 -0.085962 -1.017100 -0.195927 -1.478326 -0.180440 0.000000 0.000000 0.000000 -1.023842 1.171250 0.296778 -1.070240 -3.036721 -0.449537 -0.931359 2.612741 0.138936 0.000000 0.000000 0.000000 0.337599 -0.448418 -2.368640 0.327343 -0.839285 -0.227760 0.263822 3.149936 0.962422 0.000000 0.000000 0.000000 
-2296.185791 910.415649 1142.026978 10.009009 -1.156365 0.424562 -1.043651 1.773428 -0.238039 -1.030110 -0.346006 0.044670 -1.024679 0.356418 0.027052 -0.482723 2.041990 2.153166 0.000000 0.000000 0.000000 2.073528 -0.726296 -1.199671 0.327690 -0.915851 1.734197 -0.018591 -1.027737 -2.848414 0.000000 0.000000 0.000000 -4.206441 -0.954948 -0.498845 -0.153554 -0.094252 -0.996200 -0.195598 -1.475614 -0.179566 0.000000 0.000000 0.000000 -1.028807 1.173237 0.308111 -1.074996 -3.025308 -0.447103 -0.936138 2.622719 0.138924 0.000000 0.000000 0.000000 0.333198 -0.445587 -2.357501 0.322939 -0.832894 -0.227149 0.259534 3.153743 0.961429 0.000000 0.000000 0.000000 
-2296.452881 910.412903 1142.015991 10.026884 -1.178019 0.412225 -1.040116 1.777447 -0.244230 -1.026180 -0.348081 0.047240 -1.021050 0.358373 0.024637 -0.483411 2.048774 2.157095 0.000000 0.000000 0.000000 2.074854 -0.714307 -1.191671 0.328244 -0.905450 1.751017 -0.018582 -1.027897 -2.848174 0.000000 0.000000 0.000000 -4.191292 -0.955040 -0.503110 -0.152026 -0.102021 -0.976462 -0.195327 -1.473052 -0.179158 0.000000 0.000000 0.000000 -1.034638 1.179512 0.318415 -1.080742 -3.018651 -0.444749 -0.941670 2.634126 0.138880 0.000000 0.000000 0.000000 0.327678 -0.439872 -2.347464 0.317431 -0.829377 -0.226379 0.254301 3.159698 0.960565 0.000000 0.000000 0.000000 
-2296.709473 910.417236 1142.005981 10.046664 -1.202661 0.400758 -1.036593 1.784144 -0.252540 -1.022143 -0.349761 0.049945 -1.017236 0.359792 0.023707 -0.483988 2.054026 2.160301 0.000000 0.000000 0.000000 2.075691 -0.700743 -1.184323 0.328566 -0.893538 1.767181 -0.018516 -1.027815 -2.845825 0.000000 0.000000 0.000000 -4.177085 -0.953652 -0.510183 -0.150533 -0.108505 -0.957815 -0.195256 -1.471930 -0.178985 0.000000 0.000000 0.000000 -1.041285 1.193401 0.326930 -1.087522 -3.019356 -0.441432 -0.947807 2.647436 0.138973 0.000000 0.000000 0.000000 0.320991 -0.428179 -2.338955 0.310763 -0.830602 -0.224934 0.248198 3.168453 0.960039 0.000000 0.000000 0.000000 
-2296.958496 910.427307 1141.995972 10.068982 -1.228399 0.389910 -1.034220 1.792079 -0.260882 -1.019296 -0.350874 0.051913 -1.014639 0.360998 0.021771 -0.484654 2.059808 2.163939 0.000000 0.000000 0.000000 2.079041 -0.686593 -1.176477 0.328716 -0.880297 1.783151 -0.018426 -1.027109 -2.841660 0.000000 0.000000 0.000000 -4.161127 -0.951099 -0.517634 -0.149084 -0.113976 -0.940397 -0.195243 -1.471080 -0.179074 0.000000 0.000000 0.000000 -1.049012 1.211312 0.334283 -1.095507 -3.024443 -0.437621 -0.954885 2.661466 0.138796 0.000000 0.000000 0.000000 0.313120 -0.413789 -2.331809 0.302914 -0.834439 -0.222747 0.241159 3.178530 0.959427 0.000000 0.000000 0.000000 
-2297.207520 910.436340 1141.984985 10.091601 -1.254688 0.379110 -1.032059 1.803406 -0.268537 -1.016655 -0.353783 0.054591 -1.012229 0.364096 0.020297 -0.484844 2.064439 2.165632 0.000000 0.000000 0.000000 2.080217 -0.674506 -1.168736 0.329028 -0.869276 1.797206 -0.018579 -1.023306 -2.839763 0.000000 0.000000 0.000000 -4.147731 -0.947345 -0.525685 -0.147761 -0.117235 -0.926164 -0.195299 -1.470271 -0.180016 0.000000 0.000000 0.000000 -1.056318 1.229066 0.342661 -1.103006 -3.027779 -0.436020 -0.961744 2.674674 0.138542 0.000000 0.000000 0.000000 0.305575 -0.400745 -2.325472 0.295375 -0.834064 -0.219228 0.234483 3.186280 0.958366 0.000000 0.000000 0.000000 
-2297.460205 910.441040 1141.973022 10.115286 -1.281224 0.368151 -1.030446 1.818818 -0.274920 -1.014587 -0.357791 0.057833 -1.010405 0.367652 0.018947 -0.483718 2.071271 2.163156 0.000000 0.000000 0.000000 2.078702 -0.665307 -1.160806 0.329612 -0.861334 1.809090 -0.019105 -1.014550 -2.840996 0.000000 0.000000 0.000000 -4.138297 -0.941406 -0.534256 -0.146219 -0.117313 -0.913478 -0.195707 -1.470372 -0.183979 0.000000 0.000000 0.000000 -1.063532 1.245585 0.352945 -1.110299 -3.028461 -0.437567 -0.968765 2.687160 0.138061 0.000000 0.000000 0.000000 0.298116 -0.391378 -2.320733 0.287876 -0.825868 -0.212052 0.228134 3.190329 0.956472 0.000000 0.000000 0.000000 
-2297.712891 910.446716 1141.959961 10.139539 -1.308351 0.356939 -1.028873 1.837379 -0.277797 -1.012858 -0.362479 0.059131 -1.008776 0.371954 0.017688 -0.482118 2.078016 2.158976 0.000000 0.000000 0.000000 2.074425 -0.657974 -1.152649 0.330387 -0.855541 1.819315 -0.019894 -1.002679 -2.844916 0.000000 0.000000 0.000000 -4.130854 -0.934346 -0.542663 -0.144828 -0.115116 -0.904397 -0.196090 -1.469752 -0.188771 0.000000 0.000000 0.000000 -1.070569 1.261862 0.364146 -1.117353 -3.027047 -0.440670 -0.975777 2.698362 0.137307 0.000000 0.000000 0.000000 0.290761 -0.383418 -2.316710 0.280461 -0.813233 -0.203209 0.221979 3.191773 0.953977 0.000000 0.000000 0.000000 
-2297.959961 910.456970 1141.947021 10.163439 -1.333789 0.346214 -1.029180 1.854568 -0.278544 -1.013123 -0.367981 0.060491 -1.009044 0.377004 0.017687 -0.479944 2.084389 2.152719 0.000000 0.000000 0.000000 2.072139 -0.650722 -1.146447 0.330655 -0.848910 1.825743 -0.020334 -0.996207 -2.847263 0.000000 0.000000 0.000000 -4.119546 -0.924632 -0.551116 -0.144147 -0.109366 -0.903525 -0.196267 -1.469267 -0.190919 0.000000 0.000000 0.000000 -1.077500 1.274105 0.374537 -1.124198 -3.020297 -0.443597 -0.982827 2.706503 0.135879 0.000000 0.000000 0.000000 0.283691 -0.376793 -2.312884 0.273342 -0.800881 -0.195434 0.215964 3.193375 0.951589 0.000000 0.000000 0.000000 
-2298.200684 910.482971 1141.932983 10.186975 -1.357353 0.335658 -1.034076 1.867913 -0.269953 -1.018784 -0.370231 0.056653 -1.014238 0.378818 0.020628 -0.476609 2.093053 2.142968 0.000000 0.000000 0.000000 2.081470 -0.642429 -1.144859 0.330126 -0.838489 1.827758 -0.020172 -1.000326 -2.848848 0.000000 0.000000 0.000000 -4.093571 -0.910802 -0.558453 -0.145057 -0.098899 -0.918427 -0.195766 -1.467668 -0.186566 0.000000 0.000000 0.000000 -1.084367 1.281077 0.382955 -1.130865 -3.005595 -0.444561 -0.989924 2.710728 0.133586 0.000000 0.000000 0.000000 0.277049 -0.370842 -2.308919 0.266679 -0.790086 -0.190080 0.210103 3.194455 0.949133 0.000000 0.000000 0.000000 
-2298.434814 910.514526 1141.920044 10.210174 -1.379102 0.325528 -1.040539 1.878565 -0.257768 -1.026336 -0.371261 0.050435 -1.021045 0.380153 0.025644 -0.472952 2.102238 2.132213 0.000000 0.000000 0.000000 2.092210 -0.634049 -1.144593 0.329082 -0.827001 1.825639 -0.019703 -1.009363 -2.849351 0.000000 0.000000 0.000000 -4.063959 -0.894393 -0.565823 -0.146720 -0.084862 -0.941808 -0.194906 -1.465498 -0.178749 0.000000 0.000000 0.000000 -1.091444 1.283759 0.390286 -1.137645 -2.985299 -0.444638 -0.997322 2.712113 0.130546 0.000000 0.000000 0.000000 0.270603 -0.366435 -2.305172 0.260224 -0.779337 -0.185738 0.204302 3.195473 0.946689 0.000000 0.000000 0.000000 
-2298.660645 910.532898 1141.906982 10.231480 -1.399260 0.316407 -1.044730 1.888314 -0.252610 -1.031067 -0.371327 0.046755 -1.025361 0.381091 0.028312 -0.470390 2.111565 2.125219 0.000000 0.000000 0.000000 2.093047 -0.626785 -1.140172 0.328299 -0.818198 1.824082 -0.019411 -1.014708 -2.849408 0.000000 0.000000 0.000000 -4.042545 -0.877316 -0.570014 -0.147793 -0.068335 -0.962881 -0.194474 -1.464707 -0.174098 0.000000 0.000000 0.000000 -1.097907 1.284808 0.397757 -1.143776 -2.964661 -0.445445 -1.004171 2.712672 0.127576 0.000000 0.000000 0.000000 0.264601 -0.363037 -2.300800 0.254221 -0.769102 -0.183103 0.198705 3.196626 0.944377 0.000000 0.000000 0.000000 
